<svg width="241" height="57" viewBox="0 0 241 57" fill="none" xmlns="http://www.w3.org/2000/svg">
<path d="M44.1 20.1938L39.784 20.9876L41.1633 16.7597L45.5279 16.0815L44.1 20.1938Z" fill="#E35F30" stroke="#E35F30" stroke-width="1.22512"/>
<g filter="url(#filter0_d_418_885)">
<path d="M2.98718 33.1271L13.6675 26.961C13.7794 26.8964 13.9065 26.8624 14.0357 26.8624C14.165 26.8624 14.292 26.8964 14.404 26.961L25.0843 33.1271C25.1963 33.1918 25.2892 33.2848 25.3539 33.3967C25.4185 33.5087 25.4526 33.6357 25.4526 33.765V46.0974C25.4526 46.2267 25.4185 46.3537 25.3539 46.4656C25.2892 46.5776 25.1963 46.6706 25.0843 46.7352L14.404 52.9013C14.292 52.966 14.165 53 14.0357 53C13.9064 53 13.7794 52.966 13.6675 52.9013L2.98718 46.7352C2.87521 46.6706 2.78223 46.5776 2.71759 46.4656C2.65294 46.3537 2.6189 46.2267 2.6189 46.0974V33.765C2.6189 33.6357 2.65294 33.5087 2.71759 33.3967C2.78223 33.2848 2.87521 33.1918 2.98718 33.1271ZM14.0357 39.0806L23.2429 33.765L14.0357 28.4494L4.82861 33.765L14.0357 39.0806ZM4.09204 45.6721L13.2992 50.9877V40.3565L4.09204 35.0408V45.6721Z" fill="url(#paint0_linear_418_885)"/>
</g>
<g filter="url(#filter1_d_418_885)">
<path d="M27.0816 33.1271L37.7619 26.961C37.8739 26.8964 38.0009 26.8624 38.1302 26.8624C38.2594 26.8624 38.3865 26.8964 38.4984 26.961L49.1787 33.1271C49.2907 33.1918 49.3837 33.2848 49.4483 33.3967C49.513 33.5087 49.547 33.6357 49.547 33.765V46.0974C49.547 46.2267 49.513 46.3537 49.4483 46.4656C49.3837 46.5776 49.2907 46.6706 49.1787 46.7352L38.4984 52.9013C38.3865 52.966 38.2595 53 38.1302 53C38.0009 53 37.8738 52.966 37.7619 52.9013L27.0816 46.7352C26.9696 46.6706 26.8767 46.5776 26.812 46.4656C26.7474 46.3537 26.7133 46.2267 26.7133 46.0974V33.765C26.7133 33.6357 26.7474 33.5087 26.812 33.3967C26.8767 33.2848 26.9696 33.1918 27.0816 33.1271ZM38.1302 39.0806L47.3373 33.765L38.1302 28.4494L28.923 33.765L38.1302 39.0806ZM28.1865 45.6721L37.3936 50.9877V40.3565L28.1865 35.0408V45.6721Z" fill="url(#paint1_linear_418_885)"/>
</g>
<g filter="url(#filter2_d_418_885)">
<path d="M26.0828 5.9109C26.2119 5.9109 26.3391 5.94512 26.451 6.00954L37.1317 12.1756C37.2436 12.2402 37.3365 12.3341 37.4012 12.4461C37.4657 12.558 37.4998 12.685 37.4998 12.8142V25.1463C37.4998 25.2755 37.4658 25.4025 37.4012 25.5144C37.3365 25.6264 37.2436 25.7193 37.1317 25.784L26.451 31.95C26.3391 32.0145 26.212 32.0486 26.0828 32.0486C25.9536 32.0485 25.8265 32.0146 25.7147 31.95L15.035 25.784C14.923 25.7193 14.8301 25.6263 14.7654 25.5144C14.7008 25.4025 14.6668 25.2755 14.6668 25.1463V16.5798C15.1275 16.569 15.6223 16.5086 16.1395 16.3738V24.7215L25.3465 30.0369V19.405L18.3309 15.3552C18.7919 15.0345 19.1755 14.685 19.494 14.3259L26.0828 18.1297L35.2899 12.8142L26.0828 7.49782L20.9588 10.4558L20.2713 9.15211L25.7147 6.00954C25.8266 5.94499 25.9537 5.91096 26.0828 5.9109Z" fill="url(#paint2_linear_418_885)"/>
</g>
<path d="M35.0124 9.25383C51.2093 6.71889 54.0262 24.3239 46.2798 29.9575" stroke="#E35F30" stroke-width="1.40842" stroke-dasharray="2.82 2.82"/>
<path d="M20.4212 3.42444L11.649 4.47204C11.4187 4.49865 11.2215 4.61732 11.1065 4.79837L6.07116 12.0574C5.92667 12.301 5.89081 12.6135 6.04899 12.8764C6.19727 13.1229 6.50005 13.254 6.79938 13.2306L7.55919 13.154L8.94321 15.4545C9.08161 15.6845 9.37117 15.7565 9.6013 15.6181C9.83142 15.4796 9.90349 15.1901 9.76509 14.9601L8.6381 13.0868L9.9407 13.0193L11.6213 15.8128C11.6905 15.9278 11.7827 16.0066 11.9078 16.0657C12.0328 16.1247 14.8731 17.4596 17.8976 15.6401C21.0043 13.7711 21.08 10.6595 21.0964 10.5378C21.0963 10.426 21.0764 10.2813 21.017 10.1827L19.376 7.45492L21.1888 4.55158C21.3497 4.29811 21.3428 3.98895 21.1946 3.74247C21.0134 3.51576 20.7205 3.40103 20.4212 3.42444ZM19.7313 10.6876C19.6399 11.2798 19.2932 13.2339 17.2056 14.4898C15.1674 15.716 13.2391 15.1528 12.6632 14.9398L11.4373 12.9022L15.776 12.5972C15.9043 12.5871 16.0128 12.5442 16.1114 12.4849C16.21 12.4256 16.3152 12.3399 16.3842 12.2313L18.5648 8.74859L19.7313 10.6876ZM15.281 11.1046L8.24841 11.6204L12.1768 5.94484L19.0315 5.1333L15.281 11.1046ZM10.3484 15.9296C10.5326 15.9754 10.7236 16.1067 10.8224 16.271C10.9213 16.4353 10.9643 16.6556 10.902 16.8498C10.8561 17.034 10.7247 17.225 10.5603 17.3238C10.396 17.4227 10.1756 17.4658 9.98146 17.4035C9.79719 17.3577 9.60626 17.2264 9.5074 17.0621C9.40854 16.8978 9.36555 16.6775 9.42785 16.4833C9.47371 16.2991 9.6051 16.1082 9.76947 16.0093C9.93385 15.9104 10.1378 15.8772 10.3484 15.9296Z" fill="#E35F30"/>
<path d="M68.0619 26.74C68.0619 28.312 68.1639 29.6493 68.3681 30.7518C68.5723 31.8339 68.8683 32.7323 69.2562 33.4469C69.6442 34.141 70.1035 34.6617 70.6344 35.0087C71.1856 35.3558 71.7981 35.56 72.4719 35.6212V38.6531C71.2264 38.5715 70.0933 38.2754 69.0725 37.765C68.0721 37.2342 67.2248 36.489 66.5306 35.5294C65.8364 34.5494 65.2954 33.355 64.9075 31.9462C64.5195 30.5375 64.3256 28.9245 64.3256 27.1075V15.9293H68.0619V26.74ZM81.8738 15.9293V27.1075C81.8738 28.9245 81.6798 30.5375 81.2919 31.9462C80.904 33.355 80.3527 34.5494 79.6381 35.5294C78.944 36.489 78.0967 37.2342 77.0963 37.765C76.0958 38.2754 74.9729 38.5715 73.7275 38.6531V35.6212C74.4013 35.5396 75.0035 35.3354 75.5344 35.0087C76.0856 34.6617 76.5552 34.141 76.9431 33.4469C77.3311 32.7527 77.6271 31.8646 77.8313 30.7825C78.0558 29.68 78.1681 28.3325 78.1681 26.74V15.9293H81.8738ZM99.7895 15.9293H103.526V38.5H99.7895L92.1944 25.1475V18.1037L99.7895 31.4869V15.9293ZM87.2025 38.5V15.9293H90.9388V38.5H87.2025ZM112.928 38.5H109.191V15.9293H112.928V38.5ZM118.532 15.9293H122.207V38.5H118.532V15.9293ZM125.025 15.9293C125.984 15.9293 126.934 16.0824 127.873 16.3887C128.812 16.6949 129.649 17.1543 130.384 17.7668C131.139 18.3793 131.742 19.1245 132.191 20.0024C132.66 20.8599 132.895 21.8297 132.895 22.9118C132.895 24.0552 132.701 25.0964 132.313 26.0356C131.925 26.9543 131.384 27.7302 130.69 28.3631C129.996 28.996 129.159 29.486 128.179 29.8331C127.199 30.1802 126.117 30.3537 124.933 30.3537H123.463V27.6587H125.576C126.025 27.6587 126.464 27.5873 126.893 27.4443C127.342 27.281 127.75 27.0258 128.118 26.6787C128.485 26.3316 128.781 25.8518 129.006 25.2393C129.23 24.6064 129.343 23.8306 129.343 22.9118C129.343 22.5443 129.292 22.1258 129.19 21.6562C129.087 21.1662 128.873 20.7068 128.546 20.2781C128.24 19.8289 127.801 19.4614 127.23 19.1756C126.658 18.8693 125.902 18.7162 124.963 18.7162H123.463V15.9293H125.025ZM137.03 15.9293H140.705V38.5H137.03V15.9293ZM152.342 38.5H148.453L144.196 30.3231C144.135 30.3231 144.063 30.3333 143.981 30.3537C143.92 30.3537 143.818 30.3537 143.675 30.3537C143.532 30.3537 143.318 30.3537 143.032 30.3537C142.767 30.3537 142.409 30.3537 141.96 30.3537V27.6587H144.043C144.492 27.6587 144.941 27.5873 145.39 27.4443C145.839 27.281 146.248 27.0258 146.615 26.6787C146.983 26.3316 147.279 25.8518 147.503 25.2393C147.728 24.6064 147.84 23.8306 147.84 22.9118C147.84 22.5443 147.789 22.1258 147.687 21.6562C147.585 21.1662 147.371 20.7068 147.044 20.2781C146.738 19.8289 146.299 19.4614 145.727 19.1756C145.155 18.8693 144.4 18.7162 143.461 18.7162H141.96V15.9293H143.522C144.482 15.9293 145.431 16.0824 146.37 16.3887C147.309 16.6949 148.147 17.1543 148.882 17.7668C149.637 18.3793 150.239 19.1245 150.688 20.0024C151.158 20.8599 151.393 21.8297 151.393 22.9118C151.393 24.5452 151.015 25.9335 150.26 27.0768C149.504 28.2202 148.483 29.0675 147.197 29.6187L152.342 38.5ZM157.395 15.9293H161.132V38.5H157.395V15.9293ZM170.564 28.3325H162.387V25.8212H170.564V28.3325ZM162.387 35.7131H171.513V38.5H162.387V35.7131ZM171.513 15.9293V18.7162H162.387V15.9293H171.513ZM176.505 15.9293H180.18V38.5H176.505V15.9293ZM182.998 15.9293C183.957 15.9293 184.907 16.0824 185.846 16.3887C186.785 16.6949 187.622 17.1543 188.357 17.7668C189.113 18.3793 189.715 19.1245 190.164 20.0024C190.634 20.8599 190.869 21.8297 190.869 22.9118C190.869 24.0552 190.675 25.0964 190.287 26.0356C189.899 26.9543 189.358 27.7302 188.664 28.3631C187.969 28.996 187.132 29.486 186.152 29.8331C185.172 30.1802 184.09 30.3537 182.906 30.3537H181.436V27.6587H183.549C183.998 27.6587 184.437 27.5873 184.866 27.4443C185.315 27.281 185.724 27.0258 186.091 26.6787C186.459 26.3316 186.755 25.8518 186.979 25.2393C187.204 24.6064 187.316 23.8306 187.316 22.9118C187.316 22.5443 187.265 22.1258 187.163 21.6562C187.061 21.1662 186.846 20.7068 186.52 20.2781C186.214 19.8289 185.775 19.4614 185.203 19.1756C184.631 18.8693 183.876 18.7162 182.937 18.7162H181.436V15.9293H182.998ZM202.598 38.5H198.862V21.1968L195.769 24.2899L193.135 21.6562L198.862 15.9293H202.598V38.5ZM216.165 18.5937C215.409 18.5937 214.726 18.7366 214.113 19.0224C213.501 19.3083 212.98 19.7983 212.551 20.4924C212.122 21.1662 211.785 22.0441 211.54 23.1262C211.316 24.2083 211.193 25.5354 211.173 27.1075C211.193 28.3529 211.275 29.4554 211.418 30.415C211.561 31.3746 211.775 32.1912 212.061 32.865L210.377 36.4481C209.438 35.4885 208.713 34.2431 208.202 32.7119C207.692 31.1602 207.437 29.2921 207.437 27.1075C207.437 25.2087 207.631 23.5447 208.019 22.1156C208.427 20.666 208.999 19.4614 209.734 18.5018C210.489 17.5422 211.398 16.8174 212.459 16.3274C213.541 15.817 214.746 15.5618 216.073 15.5618C217.482 15.5618 218.717 15.8272 219.779 16.358L218.431 19.2368C217.757 18.8081 217.002 18.5937 216.165 18.5937ZM221.677 17.6749C222.678 18.6141 223.433 19.8697 223.944 21.4418C224.474 23.0139 224.74 24.9025 224.74 27.1075C224.74 29.0062 224.536 30.6804 224.127 32.13C223.739 33.5796 223.168 34.7842 222.412 35.7437C221.657 36.7033 220.748 37.4281 219.687 37.9181C218.625 38.4081 217.421 38.6531 216.073 38.6531C214.623 38.6531 213.337 38.3673 212.214 37.7956L213.592 34.8862C214.225 35.3967 215.022 35.6519 215.981 35.6519C216.737 35.6519 217.421 35.5089 218.033 35.2231C218.666 34.9169 219.197 34.4269 219.626 33.7531C220.054 33.0794 220.381 32.2014 220.606 31.1193C220.851 30.0168 220.983 28.6795 221.004 27.1075C220.983 25.8212 220.891 24.6983 220.728 23.7387C220.565 22.7791 220.33 21.9624 220.024 21.2887C220.003 21.2683 219.993 21.2479 219.993 21.2274L221.677 17.6749ZM237.327 38.5H233.591V21.1968L230.497 24.2899L227.864 21.6562L233.591 15.9293H237.327V38.5Z" fill="#FD9004"/>
<defs>
<filter id="filter0_d_418_885" x="-6.19888e-06" y="25.291" width="28.0715" height="31.3754" filterUnits="userSpaceOnUse" color-interpolation-filters="sRGB">
<feFlood flood-opacity="0" result="BackgroundImageFix"/>
<feColorMatrix in="SourceAlpha" type="matrix" values="0 0 0 0 0 0 0 0 0 0 0 0 0 0 0 0 0 0 127 0" result="hardAlpha"/>
<feOffset dy="1.04756"/>
<feGaussianBlur stdDeviation="1.30945"/>
<feComposite in2="hardAlpha" operator="out"/>
<feColorMatrix type="matrix" values="0 0 0 0 0 0 0 0 0 0 0 0 0 0 0 0 0 0 0.1 0"/>
<feBlend mode="normal" in2="BackgroundImageFix" result="effect1_dropShadow_418_885"/>
<feBlend mode="normal" in="SourceGraphic" in2="effect1_dropShadow_418_885" result="shape"/>
</filter>
<filter id="filter1_d_418_885" x="24.0944" y="25.291" width="28.0715" height="31.3755" filterUnits="userSpaceOnUse" color-interpolation-filters="sRGB">
<feFlood flood-opacity="0" result="BackgroundImageFix"/>
<feColorMatrix in="SourceAlpha" type="matrix" values="0 0 0 0 0 0 0 0 0 0 0 0 0 0 0 0 0 0 127 0" result="hardAlpha"/>
<feOffset dy="1.04756"/>
<feGaussianBlur stdDeviation="1.30945"/>
<feComposite in2="hardAlpha" operator="out"/>
<feColorMatrix type="matrix" values="0 0 0 0 0 0 0 0 0 0 0 0 0 0 0 0 0 0 0.1 0"/>
<feBlend mode="normal" in2="BackgroundImageFix" result="effect1_dropShadow_418_885"/>
<feBlend mode="normal" in="SourceGraphic" in2="effect1_dropShadow_418_885" result="shape"/>
</filter>
<filter id="filter2_d_418_885" x="12.0479" y="4.33956" width="28.0708" height="31.3755" filterUnits="userSpaceOnUse" color-interpolation-filters="sRGB">
<feFlood flood-opacity="0" result="BackgroundImageFix"/>
<feColorMatrix in="SourceAlpha" type="matrix" values="0 0 0 0 0 0 0 0 0 0 0 0 0 0 0 0 0 0 127 0" result="hardAlpha"/>
<feOffset dy="1.04756"/>
<feGaussianBlur stdDeviation="1.30945"/>
<feComposite in2="hardAlpha" operator="out"/>
<feColorMatrix type="matrix" values="0 0 0 0 0 0 0 0 0 0 0 0 0 0 0 0 0 0 0.1 0"/>
<feBlend mode="normal" in2="BackgroundImageFix" result="effect1_dropShadow_418_885"/>
<feBlend mode="normal" in="SourceGraphic" in2="effect1_dropShadow_418_885" result="shape"/>
</filter>
<linearGradient id="paint0_linear_418_885" x1="2.57574" y1="41.1652" x2="25.383" y2="40.4524" gradientUnits="userSpaceOnUse">
<stop stop-color="#E35F30"/>
<stop offset="1" stop-color="#FF9500"/>
</linearGradient>
<linearGradient id="paint1_linear_418_885" x1="26.6702" y1="41.1652" x2="49.4774" y2="40.4524" gradientUnits="userSpaceOnUse">
<stop stop-color="#E35F30"/>
<stop offset="1" stop-color="#FF9500"/>
</linearGradient>
<linearGradient id="paint2_linear_418_885" x1="37.543" y1="20.2138" x2="14.7364" y2="19.5011" gradientUnits="userSpaceOnUse">
<stop stop-color="#FF9500"/>
<stop offset="1" stop-color="#E35F30"/>
</linearGradient>
</defs>
</svg>
