<svg width="64" height="64" viewBox="0 0 64 64" fill="none" xmlns="http://www.w3.org/2000/svg">
  <rect width="64" height="64" rx="12" fill="#8C1515"/>
  <path d="M37.8 16.5c0 2.5-1.3 4.7-3.7 6.1-2.4 1.4-5.5 2-9.4 2h-0.9v5.6h1.7c3.7 0 6.5 0.6 8.5 1.8 1.9 1.2 2.9 2.9 2.9 5.1 0 2.3-1.1 4.2-3.2 5.7-2.1 1.5-4.9 2.2-8.4 2.2-3.7 0-6.7-0.7-9-2.2-2.3-1.5-3.4-3.4-3.4-5.7h6.7c0 1.2 0.5 2.1 1.6 2.8 1.1 0.7 2.5 1.1 4.2 1.1 1.6 0 2.8-0.3 3.8-0.9 1-0.6 1.4-1.4 1.4-2.5 0-1-0.5-1.8-1.6-2.5-1.1-0.7-2.6-1.1-4.5-1.1h-5.9v-18h14v4.5h-8z" fill="#FFFFFF"/>
</svg>

